<?xml version="1.0" encoding="UTF-8"?>
<svg width="825" height="278" viewBox="0 0 1500 506" xmlns="http://www.w3.org/2000/svg" role="img" aria-label="holo review pipeline">
  <style type="text/css"><![CDATA[
@import url("https://fonts.googleapis.com/css2?family=Inter:wght@400;500;600;700&display=swap");
text { font-family: var(--font); }
:root {
    --bg:             #F0EEE6;
    --text:           #404442;
    --label-text:     #6B6E64;
    --action-fill:    #C3DCB7;
    --agent-fill:     #C2D6E5;
    --terminal-fill:  #E5DCBE;
    --data-fill:      #EAF0F4;
    --data-stroke:    #6E8CAF;
    --state-fill:     #F7F4E4;
    --state-stroke:   #C6A24F;
    --callout-fill:   #FBF8EE;
    --callout-stroke: #D89270;
    --callout-text:   #B26C3F;
    --flow-line:      #6A6F66;
    --flow-loopback:  #8FB585;
    --container:      #B5B2A8;
    --container-lbl:  #6E6B62;
    --font: "Inter", "Söhne", -apple-system, BlinkMacSystemFont, "Segoe UI",
            Helvetica, Arial, sans-serif;
  }

  #arrow-flow     path { fill: var(--flow-line); }
  #arrow-loopback path { fill: var(--flow-loopback); }
  #arrow-callout  path { fill: var(--callout-stroke); }

  .container-box   { fill: none; stroke: var(--container); stroke-width: 2; stroke-dasharray: 6 6; }
  .container-gap   { fill: var(--bg); }
  .container-label { font-weight: 500; font-size: 16px; fill: var(--container-lbl); letter-spacing: 0.01em; }

  .flow-arrow        { stroke: var(--flow-line); stroke-width: 5; fill: none;
                       stroke-linecap: round; stroke-linejoin: round; }
  .flow-arrow.dashed { stroke-width: 3; stroke-dasharray: 7 5; }
  .flow-arrow.green  { stroke: var(--flow-loopback); stroke-width: 5; }
  .loopback-arrow    { stroke: var(--flow-loopback); stroke-width: 5; fill: none;
                       stroke-linecap: round; stroke-linejoin: round; }

  .edge-label    { font-weight: 500; font-size: 18px; fill: var(--label-text); }
  .edge-label-bg { fill: var(--bg); }

  /* light: action/agent/terminal SOLID fill, NO border; only data/state/callout bordered (2px) */
  .node-label    { font-weight: 700; font-size: 18px; fill: var(--text); }
  .node-sublabel { font-weight: 500; font-size: 12px; fill: var(--label-text); }
  .role-action   { fill: var(--action-fill); }
  .role-agent    { fill: var(--agent-fill); }
  .role-terminal { fill: var(--terminal-fill); }
  .data-rect     { fill: var(--data-fill);     stroke: var(--data-stroke);     stroke-width: 2; }
  .state-rect    { fill: var(--state-fill);    stroke: var(--state-stroke);    stroke-width: 2; }
  .callout-box   { fill: var(--callout-fill);  stroke: var(--callout-stroke);  stroke-width: 2; }

  .legend-label  { font-weight: 500; font-size: 18px; fill: var(--label-text); }

  .caption       { font-weight: 500; font-size: 18px; fill: #404442; }
  .caption-cmd   { fill: #8FB585; }
]]></style>
  <rect width="100%" height="100%" fill="var(--bg)" />

  <defs>
    <marker id="arrow-flow" viewBox="0 0 14 12" refX="0" refY="6"
            markerWidth="14" markerHeight="12" markerUnits="userSpaceOnUse" orient="auto">
      <path d="M 0 0 L 14 6 L 0 12 z" />
    </marker>
    <marker id="arrow-loopback" viewBox="0 0 14 12" refX="0" refY="6"
            markerWidth="14" markerHeight="12" markerUnits="userSpaceOnUse" orient="auto">
      <path d="M 0 0 L 14 6 L 0 12 z" />
    </marker>
    <marker id="arrow-callout" viewBox="0 0 14 12" refX="0" refY="6"
            markerWidth="14" markerHeight="12" markerUnits="userSpaceOnUse" orient="auto">
      <path d="M 0 0 L 14 6 L 0 12 z" />
    </marker>
  </defs>
  <g class="container">
    <rect x="50" y="50" width="609" height="360" rx="20" fill="rgba(110,140,175,0.07)" stroke="#6E8CAF" stroke-width="2" stroke-dasharray="6 6" />
    <rect class="container-gap" x="273" y="40" width="164" height="20" />
    <text class="container-label" x="355" y="55" text-anchor="middle" fill="#6E8CAF">cross-model review</text>
  </g>
  <line class="flow-arrow" x1="178" y1="140" x2="178" y2="186" marker-end="url(#arrow-flow)" />
  <line class="flow-arrow" x1="178" y1="320" x2="178" y2="274" marker-end="url(#arrow-flow)" />
  <line class="flow-arrow green" x1="278" y1="230" x2="365" y2="230" marker-end="url(#arrow-loopback)" />
  <line class="flow-arrow green" x1="639" y1="230" x2="726" y2="230" marker-end="url(#arrow-loopback)" />
  <line class="flow-arrow green" x1="940" y1="230" x2="1036" y2="230" marker-end="url(#arrow-loopback)" />
  <line class="flow-arrow green" x1="1170" y1="230" x2="1256" y2="230" marker-end="url(#arrow-loopback)" />
  <line class="flow-arrow dashed" x1="840" y1="260" x2="840" y2="306" marker-end="url(#arrow-flow)" />
  <path class="flow-arrow dashed" d="M 286,230 Q 298,230 298,218 L 298,172 Q 298,160 310,160 L 1098,160 Q 1110,160 1110,172 L 1110,186" marker-end="url(#arrow-flow)" />
  <g transform="translate(995,216)">
    <rect class="edge-label-bg" x="-53.4" y="-9" width="106.8" height="18" />
    <text class="edge-label" text-anchor="middle" y="4">still real</text>
  </g>
  <g transform="translate(846,290)">
    <rect class="edge-label-bg" x="-3" y="-9" width="56.4" height="18" />
    <text class="edge-label" text-anchor="start" y="4">stale</text>
  </g>
  <g transform="translate(730,146)">
    <rect class="edge-label-bg" x="-63.48" y="-9" width="126.96" height="18" />
    <text class="edge-label" text-anchor="middle" y="4">fix directly</text>
  </g>
  <g transform="translate(333,216)">
    <rect class="edge-label-bg" x="-28.2" y="-9" width="56.4" height="18" />
    <text class="edge-label" text-anchor="middle" y="4">write</text>
  </g>
  <g transform="translate(690,216)">
    <rect class="edge-label-bg" x="-23.16" y="-9" width="46.32" height="18" />
    <text class="edge-label" text-anchor="middle" y="4">read</text>
  </g>
  <rect class="role-agent" x="108" y="80" width="140" height="60" rx="12" ry="12" />
  <text class="node-label" x="178" y="117" text-anchor="middle">claude</text>
  <rect class="role-agent" x="108" y="320" width="140" height="60" rx="12" ry="12" />
  <text class="node-label" x="178" y="357" text-anchor="middle">codex</text>
  <rect class="role-action" x="78" y="200" width="200" height="60" rx="12" ry="12" />
  <text class="node-label" x="178" y="237" text-anchor="middle">/full-review</text>
  <rect class="data-rect" x="379" y="200" width="260" height="60" rx="12" ry="12" />
  <text class="node-label" x="509" y="237" text-anchor="middle">logs/review_reports</text>
  <rect class="role-action" x="740" y="200" width="200" height="60" rx="12" ry="12" />
  <text class="node-label" x="840" y="237" text-anchor="middle">/check-review</text>
  <rect class="role-action" x="1050" y="200" width="120" height="60" rx="12" ry="12" />
  <text class="node-label" x="1110" y="237" text-anchor="middle">/fix</text>
  <rect class="role-action" x="1270" y="200" width="180" height="60" rx="12" ry="12" />
  <text class="node-label" x="1360" y="237" text-anchor="middle">/commit</text>
  <rect class="state-rect" x="770" y="320" width="140" height="60" rx="12" ry="12" />
  <text class="node-label" x="840" y="357" text-anchor="middle">pass</text>
  <g class="legend" transform="translate(50, 442)">
    <g transform="translate(0, 0)">
      <rect width="22" height="12" rx="3" fill="var(--agent-fill)" stroke="var(--agent-stroke)" stroke-width="1" />
      <text x="30" y="10" class="legend-label">agent</text>
    </g>
    <g transform="translate(114, 0)">
      <rect width="22" height="12" rx="3" fill="var(--action-fill)" stroke="var(--action-stroke)" stroke-width="1" />
      <text x="30" y="10" class="legend-label">skills</text>
    </g>
    <g transform="translate(238, 0)">
      <rect width="22" height="12" rx="3" fill="var(--data-fill)" stroke="var(--data-stroke)" stroke-width="1.4" />
      <text x="30" y="10" class="legend-label">data store</text>
    </g>
    <g transform="translate(402, 0)">
      <rect width="22" height="12" rx="3" fill="var(--state-fill)" stroke="var(--state-stroke)" stroke-width="1.4" />
      <text x="30" y="10" class="legend-label">outcome</text>
    </g>
  </g>

</svg>
