<?xml version="1.0" encoding="UTF-8"?>
<svg width="825" height="329" viewBox="0 0 1500 599" xmlns="http://www.w3.org/2000/svg" role="img" aria-label="holo planning pipeline">
  <style type="text/css"><![CDATA[
@import url("https://fonts.googleapis.com/css2?family=Inter:wght@400;500;600;700&display=swap");
text { font-family: var(--font); }
:root {
    --bg:             #020617;
    --text:           #E2E8F0;
    --label-text:     #94A3B8;
    --action-fill:    rgba(19,78,74,0.4);
    --action-stroke:  #2DD4BF;
    --agent-fill:     rgba(14,116,144,0.35);
    --agent-stroke:   #22D3EE;
    --terminal-fill:  rgba(30,41,59,0.5);
    --terminal-stroke:#94A3B8;
    --data-fill:      rgba(76,29,149,0.4);
    --data-stroke:    #A78BFA;
    --state-fill:     rgba(120,53,15,0.4);
    --state-stroke:   #FBBF24;
    --callout-fill:   rgba(251,146,60,0.25);
    --callout-stroke: #FB923C;
    --callout-text:   #FDBA74;
    --flow-line:      #94A3B8;
    --flow-loopback:  #2DD4BF;
    --container:      #475569;
    --container-lbl:  #94A3B8;
    --font: "Inter", "Söhne", -apple-system, BlinkMacSystemFont, "Segoe UI",
            Helvetica, Arial, sans-serif;
  }

  #arrow-flow     path { fill: var(--flow-line); }
  #arrow-loopback path { fill: var(--flow-loopback); }
  #arrow-callout  path { fill: var(--callout-stroke); }

  .container-box   { fill: none; stroke: var(--container); stroke-width: 2; stroke-dasharray: 6 6; }
  .container-gap   { fill: var(--bg); }
  .container-label { font-weight: 500; font-size: 16px; fill: var(--container-lbl); letter-spacing: 0.01em; }

  .flow-arrow        { stroke: var(--flow-line); stroke-width: 5; fill: none;
                       stroke-linecap: round; stroke-linejoin: round; }
  .flow-arrow.dashed { stroke-width: 3; stroke-dasharray: 7 5; }
  .flow-arrow.green  { stroke: var(--flow-loopback); stroke-width: 5; }
  .loopback-arrow    { stroke: var(--flow-loopback); stroke-width: 5; fill: none;
                       stroke-linecap: round; stroke-linejoin: round; }

  .edge-label    { font-weight: 500; font-size: 18px; fill: var(--label-text); }
  .edge-label-bg { fill: var(--bg); }

  .node-label    { font-weight: 700; font-size: 18px; fill: var(--text); }
  .node-sublabel { font-weight: 500; font-size: 12px; fill: var(--label-text); }
  .role-action   { fill: var(--action-fill);   stroke: var(--action-stroke);   stroke-width: 2; }
  .role-agent    { fill: var(--agent-fill);    stroke: var(--agent-stroke);    stroke-width: 2; }
  .role-terminal { fill: var(--terminal-fill); stroke: var(--terminal-stroke); stroke-width: 2; }
  .data-rect     { fill: var(--data-fill);     stroke: var(--data-stroke);     stroke-width: 2; }
  .state-rect    { fill: var(--state-fill);    stroke: var(--state-stroke);    stroke-width: 2; }
  .callout-box   { fill: var(--callout-fill);  stroke: var(--callout-stroke);  stroke-width: 2; }

  .legend-label  { font-weight: 500; font-size: 18px; fill: var(--label-text); }

  .caption       { font-weight: 500; font-size: 18px; fill: #FFFFFF; }
  .caption-cmd   { fill: #2DD4BF; }
]]></style>
  <rect x="0" y="0" width="1500" height="599" rx="25" ry="25" fill="var(--bg)" />

  <defs>
    <marker id="arrow-flow" viewBox="0 0 14 12" refX="0" refY="6"
            markerWidth="14" markerHeight="12" markerUnits="userSpaceOnUse" orient="auto">
      <path d="M 0 0 L 14 6 L 0 12 z" />
    </marker>
    <marker id="arrow-loopback" viewBox="0 0 14 12" refX="0" refY="6"
            markerWidth="14" markerHeight="12" markerUnits="userSpaceOnUse" orient="auto">
      <path d="M 0 0 L 14 6 L 0 12 z" />
    </marker>
    <marker id="arrow-callout" viewBox="0 0 14 12" refX="0" refY="6"
            markerWidth="14" markerHeight="12" markerUnits="userSpaceOnUse" orient="auto">
      <path d="M 0 0 L 14 6 L 0 12 z" />
    </marker>
  </defs>
  <g transform="translate(0,-47)">
  <path class="loopback-arrow" d="M 1085,160 L 1085,132 Q 1085,120 1073,120 L 662,120 Q 650,120 650,132 L 650,146" marker-end="url(#arrow-loopback)" />
  <path class="flow-arrow" d="M 1085,220 L 1085,538 Q 1085,550 1073,550 L 142,550 Q 130,550 130,538 L 130,234" marker-end="url(#arrow-flow)" />
  <line class="flow-arrow green" x1="210" y1="190" x2="296" y2="190" marker-end="url(#arrow-loopback)" />
  <line class="flow-arrow green" x1="490" y1="190" x2="576" y2="190" marker-end="url(#arrow-loopback)" />
  <line class="flow-arrow green" x1="710" y1="190" x2="991" y2="190" marker-end="url(#arrow-loopback)" />
  <line class="flow-arrow green" x1="1165" y1="190" x2="1316" y2="190" marker-end="url(#arrow-loopback)" />
  <line class="flow-arrow dashed" x1="400" y1="220" x2="400" y2="286" marker-end="url(#arrow-flow)" />
  <path class="flow-arrow dashed" d="M 650,220 L 650,458 Q 650,470 662,470 L 816,470" marker-end="url(#arrow-flow)" />
  <path class="flow-arrow dashed" d="M 650,318 Q 650,330 662,330 L 816,330" marker-end="url(#arrow-flow)" />
  <path class="flow-arrow dashed" d="M 1010,330 L 1077,330 A 8 8 0 0 1 1093,330 L 1196,330" marker-end="url(#arrow-flow)" />
  <path class="flow-arrow dashed" d="M 1010,470 L 1077,470 A 8 8 0 0 1 1093,470 L 1196,470" marker-end="url(#arrow-flow)" />
  <g transform="translate(1248,176)">
    <rect class="edge-label-bg" x="-48.36" y="-9" width="96.72" height="18" />
    <text class="edge-label" text-anchor="middle" y="4">finalized</text>
  </g>
  <g transform="translate(867,106)">
    <rect class="edge-label-bg" x="-38.28" y="-9" width="76.56" height="18" />
    <text class="edge-label" text-anchor="middle" y="4">iterate</text>
  </g>
  <g transform="translate(406,250)">
    <rect class="edge-label-bg" x="-3" y="-9" width="76.56" height="18" />
    <text class="edge-label" text-anchor="start" y="4">abandon</text>
  </g>
  <g transform="translate(739,316)">
    <rect class="edge-label-bg" x="-68.52" y="-9" width="137.04" height="18" />
    <text class="edge-label" text-anchor="middle" y="4">docs affected</text>
  </g>
  <g transform="translate(739,456)">
    <rect class="edge-label-bg" x="-53.4" y="-9" width="106.8" height="18" />
    <text class="edge-label" text-anchor="middle" y="4">to archive</text>
  </g>
  <g transform="translate(1144,316)">
    <rect class="edge-label-bg" x="-33.24" y="-9" width="66.48" height="18" />
    <text class="edge-label" text-anchor="middle" y="4">update</text>
  </g>
  <g transform="translate(1144,456)">
    <rect class="edge-label-bg" x="-23.16" y="-9" width="46.32" height="18" />
    <text class="edge-label" text-anchor="middle" y="4">save</text>
  </g>
  <g transform="translate(608,536)">
    <rect class="edge-label-bg" x="-33.24" y="-9" width="66.48" height="18" />
    <text class="edge-label" text-anchor="middle" y="4">update</text>
  </g>
  <g transform="translate(260,176)">
    <rect class="edge-label-bg" x="-23.16" y="-9" width="46.32" height="18" />
    <text class="edge-label" text-anchor="middle" y="4">read</text>
  </g>
  <g transform="translate(540,176)">
    <rect class="edge-label-bg" x="-38.28" y="-9" width="76.56" height="18" />
    <text class="edge-label" text-anchor="middle" y="4">discuss</text>
  </g>
  <g transform="translate(857,176)">
    <rect class="edge-label-bg" x="-53.4" y="-9" width="106.8" height="18" />
    <text class="edge-label" text-anchor="middle" y="4">add/update</text>
  </g>
  <rect class="data-rect" x="50" y="160" width="160" height="60" rx="12" ry="12" />
  <text class="node-label" x="130" y="197" text-anchor="middle">todo_list</text>
  <rect class="role-action" x="310" y="160" width="180" height="60" rx="12" ry="12" />
  <text class="node-label" x="400" y="197" text-anchor="middle">/todo-check</text>
  <rect class="role-action" x="590" y="160" width="120" height="60" rx="12" ry="12" />
  <text class="node-label" x="650" y="197" text-anchor="middle">/plan</text>
  <rect class="role-action" x="1005" y="160" width="160" height="60" rx="12" ry="12" />
  <text class="node-label" x="1085" y="197" text-anchor="middle">/todo-add</text>
  <rect class="role-action" x="1330" y="160" width="120" height="60" rx="12" ry="12" />
  <text class="node-label" x="1390" y="197" text-anchor="middle">/go</text>
  <rect class="data-rect" x="280" y="300" width="240" height="60" rx="12" ry="12" />
  <text class="node-label" x="400" y="337" text-anchor="middle">todo_list_archived</text>
  <rect class="role-action" x="830" y="300" width="180" height="60" rx="12" ry="12" />
  <text class="node-label" x="920" y="337" text-anchor="middle">/update-docs</text>
  <rect class="data-rect" x="1210" y="300" width="240" height="60" rx="12" ry="12" />
  <text class="node-label" x="1330" y="337" text-anchor="middle">ai_context + docs</text>
  <rect class="role-action" x="830" y="440" width="180" height="60" rx="12" ry="12" />
  <text class="node-label" x="920" y="477" text-anchor="middle">/save-chat</text>
  <rect class="data-rect" x="1210" y="440" width="240" height="60" rx="12" ry="12" />
  <text class="node-label" x="1330" y="477" text-anchor="middle">logs/chats</text>
  <g class="legend" transform="translate(50, 582)">
    <g transform="translate(0, 0)">
      <rect width="22" height="12" rx="3" fill="var(--action-fill)" stroke="var(--action-stroke)" stroke-width="1" />
      <text x="30" y="10" class="legend-label">skills</text>
    </g>
    <g transform="translate(124, 0)">
      <rect width="22" height="12" rx="3" fill="var(--data-fill)" stroke="var(--data-stroke)" stroke-width="1.4" />
      <text x="30" y="10" class="legend-label">data store</text>
    </g>
  </g>
  </g>

</svg>
